# xmcd
#
# Track frame offsets: 
#        150
#        14752
#        32565
#        51703
#        73690
#        90820
#        110146
#        132622
#        153752
#        167764
#        183951
#        202083
#        223251
#        239794
#
# Disc length: 3433 seconds
#
# Revision: 0
# Processed by: cddbd v1.5.1PL0 Copyright (c) Steve Scherf et al.
# Submitted via: ExactAudioCopy v0.90b4
#
DISCID=d60d670e
DTITLE=Marta Solis - Promesa
DYEAR=2002
DGENRE=Other
TTITLE0=Pedazos de Amor
TTITLE1=Tu detras
TTITLE2=Tus Labios
TTITLE3=Brujo de Amor
TTITLE4=Rompe
TTITLE5=Dime Mujer
TTITLE6=La Promesa
TTITLE7=De Hierbabuena
TTITLE8=Debajo del Agua
TTITLE9=Contracorriente
TTITLE10=Volver
TTITLE11=Noche de Verano
TTITLE12=Vida
TTITLE13=Tu detras Remix
EXTD=
EXTT0=
EXTT1=
EXTT2=
EXTT3=
EXTT4=
EXTT5=
EXTT6=
EXTT7=
EXTT8=
EXTT9=
EXTT10=
EXTT11=
EXTT12=
EXTT13=
PLAYORDER=
